# xmcd
#
# Track frame offsets:
#	150
#	17335
#	30970
#	51031
#	74165
#	93450
#	107344
#	123519
#	138852
#	156106
#	180778
#	196990
#	216121
#
# Disc length: 3221 seconds
#
# Revision: 0
# Processed by: cddbd v1.5.2PL0 Copyright (c) Steve Scherf et al.
# Submitted via: EZCDAudioConverter 2.0.6.1
#
DISCID=a10c930d
DTITLE=Sammy Eubanks - Riding Alone
DYEAR=2011
DGENRE=Blues
TTITLE0=Set Me Free
TTITLE1=Who's Been Talkin'
TTITLE2=Travelin' With the Blues
TTITLE3=500 Gallons
TTITLE4=I Can't Listen to the Radio
TTITLE5=Hound Dog
TTITLE6=Wild Branch
TTITLE7=It Wasn't Me
TTITLE8=Riding Alone
TTITLE9=Rockabye
TTITLE10=Dancin' Like a White Guy
TTITLE11=Looking at Love
TTITLE12=Rockabye (Revisited)
EXTD=
EXTT0=
EXTT1=
EXTT2=
EXTT3=
EXTT4=
EXTT5=
EXTT6=
EXTT7=
EXTT8=
EXTT9=
EXTT10=
EXTT11=
EXTT12=
PLAYORDER=
